<svg width="92" height="138" viewBox="0 0 92 138" fill="none" xmlns="http://www.w3.org/2000/svg">
<g clip-path="url(#clip0)">
<path d="M31.0203 -0.000403405C30.4068 -0.00454341 29.7988 0.0214006 29.211 0.0988186V0.0945406C26.7106 0.423395 24.1678 0.387239 21.6548 0.775847C16.8402 1.5198 12.2277 3.01862 7.71866 4.82421C6.07678 5.48137 4.45903 6.21346 2.8679 6.98419C2.2758 7.27095 1.37095 7.49838 0.894809 7.95861C0.647156 8.19845 0.67501 8.76315 0.64495 9.08386C0.561249 9.98624 0.447902 10.8852 0.360617 11.7871C0.0238853 15.2671 -0.214943 18.8547 0.282984 22.3327C0.444179 23.4566 0.794011 25.493 2.17417 25.7084C4.2966 26.0407 5.94454 23.4269 6.98604 21.9835C9.41873 18.6129 12.1892 15.4759 16.1791 13.9688C20.8753 12.1945 26.2506 11.7747 31.218 11.4337C45.1589 10.4775 60.3962 13.0265 70.6656 23.3027C72.126 24.7641 73.5091 26.3144 74.6848 28.0193C79.283 34.6822 81.7118 42.2607 82.8828 50.2181C83.4334 53.9543 83.8119 57.7329 82.9604 61.4533C81.4826 67.9083 77.6078 73.5274 73.1556 78.3106C70.1082 81.5844 66.6785 84.5452 63.1095 87.2351C61.117 88.7364 58.883 90.0084 57.0094 91.6498C54.8517 93.5401 53.0575 95.9048 51.6934 98.4271C48.0225 105.219 47.0381 113.39 48.1178 120.971C48.3391 122.525 48.5371 124.086 48.8889 125.619C48.9941 126.077 49.0148 126.865 49.3111 127.24C49.8657 127.94 51.3757 128.328 52.2232 128.369C53.1071 128.412 53.6952 127.731 53.912 126.938C54.2828 125.579 54.0623 124.076 53.8473 122.709C53.4072 119.908 53.0031 117.088 53.1278 114.246C53.3578 108.997 55.3859 104.107 59.021 100.303C62.7177 96.434 67.7133 94.2009 71.9146 90.9601C80.3817 84.4288 87.9652 75.6179 90.878 65.131C91.9191 61.3812 92.2624 57.4072 91.787 53.5466C91.1862 48.6635 89.4014 43.7844 87.7203 39.1857C82.5969 25.1712 73.8058 11.8443 59.8481 5.43252C54.3094 2.88752 48.5193 1.72874 42.5216 0.892733C39.7076 0.500813 36.8957 0.258209 34.0651 0.134009C33.0812 0.0909526 32.0418 0.00718659 31.0193 0.000286595L31.0203 -0.000403405ZM23.7615 58.1676C22.3686 58.1789 20.9841 58.5342 19.781 59.267C18.0121 60.3452 17.0273 62.2279 16.4726 64.1604C15.3714 67.9976 15.8791 72.374 16.6492 76.2278C16.8954 77.4602 17.1481 78.6955 17.4935 79.9053C17.6183 80.3418 17.6751 80.978 17.9588 81.3409C18.4538 81.9757 19.6646 82.1598 20.4057 82.0351C22.6292 81.6611 22.0797 77.9969 22.004 76.4389C21.8265 72.7895 20.7519 69.2474 21.7929 65.6175C22.2337 64.0816 23.0816 62.3528 24.6318 61.6856C26.031 61.0827 27.4464 61.8182 28.0006 63.1859C28.8977 65.4007 28.6701 67.9607 29.2327 70.2652C29.4239 71.0485 29.6378 71.8243 29.9908 72.5545C30.0931 72.7655 30.2329 73.202 30.5293 73.1753C31.2497 73.1094 32.2722 71.9057 32.8125 71.4593C34.5571 70.0164 36.3523 68.4745 38.3611 67.4067C39.3062 66.9043 40.8594 66.091 41.8247 66.9453C42.0708 67.1634 42.2688 67.4198 42.445 67.6955C43.5798 69.4742 42.4547 70.863 41.717 72.5543C40.7621 74.7436 39.7835 76.9098 38.3998 78.866C37.2103 80.5484 35.5851 82.0251 34.6347 83.8629C34.0229 85.0462 33.6751 86.343 33.9282 87.6783C34.1333 88.7582 34.9687 89.4102 36.0692 89.1571C36.893 88.9675 37.4518 88.2572 37.9216 87.605C38.7586 86.4418 39.5366 85.2376 40.3685 84.0697C41.9781 81.8112 43.8786 79.6987 45.2321 77.2709C46.8636 74.3439 47.6507 71.0337 47.6488 67.6998C47.6477 64.9754 46.6585 60.8081 43.4872 60.2369C42.8904 60.1299 42.2103 60.1894 41.6175 60.2929C40.8725 60.4243 40.1491 60.6579 39.4678 60.987C37.6649 61.8599 36.1033 63.1651 34.7636 64.6474C33.9291 65.5696 33.1815 66.7258 32.1918 67.4842C32.1913 65.473 31.8169 63.2813 30.6495 61.5949C29.1124 59.3753 26.4205 58.1459 23.7611 58.1674L23.7615 58.1676ZM7.84373 90.7825C7.69025 90.788 7.53319 90.8022 7.36979 90.8257C4.65277 91.2169 3.86058 93.4006 4.36279 95.8613C5.00647 99.012 7.48383 101.414 9.93734 103.307C16.2234 108.156 24.3412 110.776 32.2566 110.429C35.3455 110.294 38.7141 109.784 41.5487 108.472C43.0687 107.769 44.657 105.236 42.5869 104.152C42.3033 104.003 41.9336 103.915 41.6177 103.863C40.7137 103.715 39.7002 104.1 38.8434 104.346C37.3327 104.78 35.8238 105.221 34.2683 105.471C29.6218 106.218 24.5972 105.157 20.75 102.402C17.6383 100.174 15.1247 97.2361 12.7502 94.2662C11.3875 92.5631 10.1456 90.7002 7.84345 90.7826L7.84373 90.7825ZM4.98757 106.135C4.57624 106.139 4.16491 106.182 3.83728 106.226C3.1452 106.317 2.35357 106.29 1.76077 106.726C0.52457 107.634 1.8857 109.463 2.53613 110.291C4.42222 112.69 6.90303 114.68 9.38136 116.435C16.2908 121.326 24.1192 124.148 32.5364 124.725C34.9564 124.891 37.4233 124.719 39.8168 124.32C40.692 124.174 41.7779 124.107 42.5868 123.729C44.8755 122.658 44.216 118.332 42.1733 117.37C41.2812 116.951 39.8476 117.503 38.9123 117.633C36.7001 117.942 34.4814 117.972 32.2566 117.918C26.4259 117.775 20.2174 115.977 15.137 113.141C13.1397 112.025 11.3032 110.668 9.58833 109.157C8.5456 108.239 7.47707 106.737 6.12477 106.273C5.80996 106.165 5.39877 106.131 4.98744 106.135H4.98757ZM5.41407 119.19C5.35092 119.19 5.28832 119.191 5.22447 119.198C4.23896 119.309 3.49476 119.825 2.84653 120.556C2.3999 121.061 1.97878 121.516 1.72216 122.152C0.307942 125.653 4.0768 128.957 6.68061 130.611C9.57827 132.45 12.7432 133.812 15.9684 134.961C23.2429 137.552 31.7759 139.213 39.3303 136.896C41.5759 136.208 43.7935 134.949 45.4261 133.249C46.3457 132.291 46.9795 130.84 45.2925 130.227C44.2931 129.864 43.08 130.788 42.1735 131.154C40.0336 132.017 37.8149 132.673 35.5179 132.951C32.4926 133.318 29.7662 132.651 26.8504 131.921C24.3598 131.298 21.8444 130.676 19.4366 129.778C17.3822 129.012 15.3409 128.102 13.5433 126.829C13.0061 126.449 12.3637 126.109 11.9235 125.613C10.4845 123.993 9.39983 122.097 7.85683 120.556C7.23176 119.932 6.36139 119.186 5.41421 119.19L5.41407 119.19Z" fill="black"/>
</g>
<defs>
<clipPath id="clip0">
<rect width="92" height="138" fill="white"/>
</clipPath>
</defs>
</svg>
