<svg width="540" height="364" viewBox="0 0 540 364" fill="none" xmlns="http://www.w3.org/2000/svg">
<path d="M540 218.518C540 282.044 499.706 304.225 450 304.225C400.294 304.225 360 282.044 360 218.518C360 154.993 450 74.1782 450 74.1782C450 74.1782 540 154.993 540 218.518Z" fill="#F2F2F2"/>
<path d="M446.955 294.719L447.871 241.503L486 175.667L448.015 233.155L448.427 209.227L474.705 161.595L448.535 202.894V202.895L449.276 159.858L477.416 121.937L449.392 153.091L449.855 74.1782L446.947 178.645L447.186 174.335L418.576 133.004L446.727 182.608L444.061 230.672L443.982 229.396L411 185.901L443.882 233.903L443.549 239.914L443.489 240.004L443.516 240.498L436.753 362.44H445.789L446.873 299.454L479.675 251.57L446.955 294.719Z" fill="#3F3D56"/>
<path d="M49 324.329C49 341.442 38.031 347.417 24.5 347.417C10.969 347.417 0 341.442 0 324.329C0 307.215 24.5 285.445 24.5 285.445C24.5 285.445 49 307.215 49 324.329Z" fill="#F2F2F2"/>
<path d="M23.5881 344.131L23.8321 329.744L34 311.944L23.8705 327.486L23.9803 321.018L30.988 308.14L24.0095 319.306L24.2069 307.67L31.7111 297.418L24.2382 305.841L24.3616 284.506L23.586 312.749L23.6493 311.584L16.0201 300.41L23.527 313.821L22.8164 326.815L22.7953 326.471L14 314.711L22.7682 327.689L22.6795 329.314L22.6638 329.338L22.6709 329.472L20.8671 362.44H23.2772L23.566 345.411L32.3136 332.465L23.5881 344.131Z" fill="#3F3D56"/>
<path d="M3 362.909H492" stroke="#3F3D56" stroke-width="2"/>
<path d="M493 347.637C493 359.305 485.613 363.379 476.5 363.379C476.289 363.379 476.078 363.377 475.868 363.372C475.445 363.364 475.027 363.345 474.614 363.318C466.39 362.772 460 358.488 460 347.637C460 336.407 475.284 322.237 476.432 321.188L476.434 321.186C476.478 321.146 476.5 321.126 476.5 321.126C476.5 321.126 493 335.969 493 347.637Z" fill="#111B47"/>
<path d="M475.712 361.6L481.819 353.681L475.696 362.47L475.68 363.379C475.253 363.37 474.83 363.352 474.411 363.325L475.07 351.65L475.065 351.559L475.076 351.542L475.138 350.439L469 341.629L475.157 349.612L475.171 349.847L475.669 341.025L470.414 331.921L475.733 339.477L476.251 321.188L476.253 321.126V321.186L476.166 335.608L481.398 329.891L476.145 336.85L476.007 344.749L480.891 337.169L475.986 345.911L475.909 350.302L483 339.752L475.883 351.834L475.712 361.6Z" fill="#3F3D56"/>
<rect x="313" y="82.6289" width="6" height="44.1313" rx="2.29166" fill="#3F3D56"/>
<rect x="124" y="47.8872" width="3" height="14.0845" rx="1.5" fill="#3F3D56"/>
<rect x="124" y="74.1782" width="4" height="25.3521" rx="1.6946" fill="#3F3D56"/>
<rect x="124" y="108.92" width="3" height="25.3521" rx="1.5" fill="#3F3D56"/>
<rect x="126" width="190" height="362.44" rx="35.694" fill="#3F3D56"/>
<rect x="202" y="11.2676" width="27" height="4.69482" rx="2.34741" fill="#E6E8EC"/>
<path d="M236 15.9624C237.657 15.9624 239 14.7013 239 13.1456C239 11.59 237.657 10.3289 236 10.3289C234.343 10.3289 233 11.59 233 13.1456C233 14.7013 234.343 15.9624 236 15.9624Z" fill="#E6E8EC"/>
<path d="M305 23.5583V338.887C304.998 346.71 298.223 353.052 289.867 353.05H153.133C144.777 353.052 138.002 346.71 138 338.887V23.5583C138 19.8004 139.594 16.1964 142.432 13.5392C145.27 10.882 149.119 9.38932 153.133 9.38965H173.594V11.8502C173.596 18.2928 179.174 23.5151 186.055 23.5169H255.592C262.474 23.5169 268.053 18.2935 268.053 11.8502V9.38965H289.867C293.881 9.38932 297.73 10.882 300.568 13.5392C303.406 16.1964 305 19.8004 305 23.5583Z" fill="white"/>
<rect x="138" y="82.6289" width="167" height="180.281" fill="#F2F2F2"/>
<path d="M150 287.323L149.13 286.591C146.04 283.946 144.001 282.229 144.001 280.09C143.985 279.268 144.327 278.475 144.949 277.892C145.57 277.309 146.419 276.985 147.3 276.994C148.343 277 149.33 277.432 150 278.176C150.67 277.432 151.657 276.999 152.7 276.994C153.581 276.985 154.43 277.309 155.051 277.892C155.673 278.475 156.015 279.268 155.999 280.09C155.999 282.229 153.96 283.946 150.87 286.591L150 287.323Z" fill="#FF6584"/>
<path d="M181 285.011L182.734 285.445C183.363 283.847 184.85 282.623 186.709 282.173C188.568 281.724 190.561 282.106 192.036 283.194L189.387 285.445H196V279.812L193.335 282.05C191.4 280.563 188.741 280.026 186.258 280.622C183.776 281.218 181.8 282.867 181 285.011L181 285.011Z" fill="#F2F2F2"/>
<path d="M148.5 69.4834C152.642 69.4834 156 66.3304 156 62.441C156 58.5517 152.642 55.3987 148.5 55.3987C144.358 55.3987 141 58.5517 141 62.441C141 66.3304 144.358 69.4834 148.5 69.4834Z" fill="#111B47"/>
<rect x="162" y="58.2156" width="72" height="8.45093" fill="#111B47"/>
<rect x="143" y="299.53" width="72" height="8.4502" fill="#F2F2F2"/>
<rect x="144" y="317.37" width="151" height="8.45117" fill="#F2F2F2"/>
<path d="M174 287.323L172.156 284.237C173.068 282.143 172.229 279.727 170.189 278.57C168.149 277.414 165.53 277.869 164.046 279.639C162.563 281.408 162.668 283.952 164.292 285.605C165.916 287.257 168.564 287.515 170.503 286.209L174 287.323Z" fill="#F2F2F2"/>
<path d="M206.555 124.366H206.555C200.85 125.474 195.842 128.686 192.634 133.296C189.425 137.905 188.278 143.535 189.446 148.947L193.977 169.953L199.051 168.968L199.409 166.742L200.472 168.692L231.318 162.704L231.676 160.478L232.739 162.428L237 161.601L232.468 140.596C231.301 135.184 227.915 130.434 223.055 127.39C218.196 124.347 212.26 123.259 206.555 124.366Z" fill="#2F2E41"/>
<path d="M245.647 188.732L272 203.93L268.706 211.267L244 200.262L245.647 188.732Z" fill="#9F616A"/>
<path d="M211.906 206.233C211.906 206.233 158.392 206.233 149.565 219.154C140.738 232.075 147.91 250.164 175.495 254.299C203.079 258.434 286.937 260.501 293.557 244.996C300.178 229.491 295.213 220.704 295.213 220.704C295.213 220.704 266.524 202.098 211.906 206.233Z" fill="#111B47"/>
<path d="M258.606 218.765L288 229.107C288 229.107 300.202 220.833 294.101 211.525C288 202.217 260.269 148.437 260.269 148.437C260.269 148.437 252.505 138.094 262.488 132.406C272.471 126.718 276.353 136.026 276.353 136.026C276.353 136.026 275.799 138.094 279.681 136.543C283.563 134.992 290.774 140.163 286.891 148.437C283.009 156.711 280.236 158.779 288.555 158.262C291.559 158.075 294.202 156.068 296.352 153.579C300.474 148.809 298.634 144.966 298.322 138.848C297.788 128.366 296.914 121.531 294.101 117.409C290.219 111.721 284.673 107.067 270.253 109.653C255.833 112.238 234.757 125.166 239.749 143.783C244.74 162.399 255.833 183.084 255.833 183.084C255.833 183.084 263.597 212.042 258.606 218.765Z" fill="#111B47"/>
<path opacity="0.1" d="M259 218.569C254.238 219.803 248.257 220.404 241.82 220.591C230.587 220.917 217.943 219.984 207.845 218.927C196.937 217.781 189 216.496 189 216.496C192.687 213.261 198.354 211.981 205.012 211.514C213.28 210.934 223.08 211.597 232.543 211.312C236.032 211.197 239.524 211.444 242.955 212.048C253.395 213.919 259 218.569 259 218.569Z" fill="black"/>
<path d="M211.5 162.441C220.06 162.441 227 155.925 227 147.887C227 139.849 220.06 133.333 211.5 133.333C202.94 133.333 196 139.849 196 147.887C196 155.925 202.94 162.441 211.5 162.441Z" fill="#9F616A"/>
<path d="M209.253 159.728C209.253 159.728 211.975 169.64 209.253 170.161C206.532 170.683 200 173.291 200 173.291L208.165 176.421L223.405 189.984L236.468 196.244L243 194.157V182.681L233.203 168.075C233.203 168.075 226.671 170.161 225.038 163.38C223.405 156.598 220.139 153.99 220.139 153.99L209.253 159.728Z" fill="#9F616A"/>
<path d="M205.355 173.708H198.739C198.739 173.708 187.159 177.311 180.543 185.545C173.926 193.78 163.45 202.014 163.45 202.014C163.45 202.014 156.282 211.278 160.141 224.144C164.001 237.01 169.515 246.273 174.477 243.7C179.44 241.127 167.309 222.6 167.309 222.6L170.618 211.278C170.618 211.278 187.711 192.75 194.879 193.265C202.047 193.78 202.598 199.441 202.598 199.441L218.037 203.558L223 193.78L220.243 183.487L205.355 173.708Z" fill="#9F616A"/>
<path d="M244.775 206.795C243.739 208.459 242.979 210.261 242.522 212.139C241.838 214.913 241.459 217.745 241.393 220.591C230.22 220.914 217.645 219.991 207.601 218.945C206.713 216.729 205.737 214.181 204.784 211.611C202.212 204.667 199.822 197.579 199.822 196.538C199.822 194.487 211.335 198.077 214.076 197.564C216.817 197.051 217.913 188.845 214.076 184.743C210.238 180.64 199 173.716 199 173.716L202.837 172.69C202.837 172.69 211.335 178.588 228.877 188.333C246.42 198.077 239.293 182.691 239.293 182.691L229.151 168.075H233.537C233.537 168.075 242.034 181.665 246.42 187.82C250.806 193.974 249.161 200.128 244.775 206.795Z" fill="#3F3D56"/>
<path d="M194.366 134.179L222.282 128.815L225.788 144.9L197.872 150.264L194.366 134.179Z" fill="#2F2E41"/>
<path d="M282.5 131.455C287.194 131.455 291 127.882 291 123.474C291 119.066 287.194 115.492 282.5 115.492C277.806 115.492 274 119.066 274 123.474C274 127.882 277.806 131.455 282.5 131.455Z" fill="#3F3D56"/>
<path d="M282.5 127.699C284.985 127.699 287 125.807 287 123.474C287 121.14 284.985 119.249 282.5 119.249C280.015 119.249 278 121.14 278 123.474C278 125.807 280.015 127.699 282.5 127.699Z" fill="white"/>
<path d="M39.4672 212.206L38.8935 216.27C38.6994 217.645 38.5051 219.022 38.4005 220.406C38.0527 225.009 38.7011 229.631 38.5304 234.243C38.3991 237.793 37.7825 241.341 38.0803 244.884C38.3438 248.017 39.3157 251.058 40.2821 254.073L41.6634 258.382C41.6863 258.643 41.8406 258.879 42.0805 259.021C42.3205 259.162 42.6188 259.193 42.8872 259.104L49 258.596C48.6085 256.949 48.1731 255.233 47.9627 253.558C47.7964 252.234 47.6964 250.904 47.592 249.574C47.2667 245.43 46.8984 241.288 46.5302 237.147L45.8832 229.871C45.6026 226.716 45.3186 223.541 44.4527 220.476C43.5897 217.373 41.8731 214.526 39.4672 212.206Z" fill="#111B47"/>
<path opacity="0.1" d="M39.4672 212.206L38.8935 216.27C38.6994 217.645 38.5051 219.022 38.4005 220.406C38.0527 225.009 38.7011 229.631 38.5304 234.243C38.3991 237.793 37.7825 241.341 38.0803 244.884C38.3438 248.017 39.3157 251.058 40.2821 254.073L41.6634 258.382C41.6863 258.643 41.8406 258.879 42.0805 259.021C42.3205 259.162 42.6188 259.193 42.8872 259.104L49 258.596C48.6085 256.949 48.1731 255.233 47.9627 253.558C47.7964 252.234 47.6964 250.904 47.592 249.574C47.2667 245.43 46.8984 241.288 46.5302 237.147L45.8832 229.871C45.6026 226.716 45.3186 223.541 44.4527 220.476C43.5897 217.373 41.8731 214.526 39.4672 212.206Z" fill="black"/>
<path d="M50.8466 352.525C50.4903 353.18 50.1802 353.857 49.9183 354.551C49.2235 356.467 49.1185 358.521 49.0197 360.542C48.9722 360.933 49.0108 361.328 49.1329 361.703C49.4299 362.43 50.286 362.798 51.0862 363C54.4378 363.847 57.9716 363.05 61.4284 362.76C64.8213 362.475 68.2776 362.681 71.6008 361.978C72.092 361.891 72.5667 361.736 73.0095 361.518C73.852 361.004 74.4804 360.233 74.7895 359.335C74.8906 359.105 74.9586 358.864 74.9916 358.617C75.1014 357.553 74.1143 356.629 73.0392 356.28C71.9641 355.93 70.7951 355.988 69.6633 355.878C64.8768 355.416 61.0155 351.995 60.245 347.534C60.2049 347.302 54.6487 347.439 54.0639 347.74C53.3794 348.093 52.9651 348.973 52.5795 349.568C51.9564 350.529 51.3788 351.515 50.8466 352.525Z" fill="#3F3D56"/>
<path opacity="0.1" d="M50.8466 352.525C50.4903 353.18 50.1802 353.857 49.9183 354.551C49.2235 356.467 49.1185 358.521 49.0197 360.542C48.9722 360.933 49.0108 361.328 49.1329 361.703C49.4299 362.43 50.286 362.798 51.0862 363C54.4378 363.847 57.9716 363.05 61.4284 362.76C64.8213 362.475 68.2776 362.681 71.6008 361.978C72.092 361.891 72.5667 361.736 73.0095 361.518C73.852 361.004 74.4804 360.233 74.7895 359.335C74.8906 359.105 74.9586 358.864 74.9916 358.617C75.1014 357.553 74.1143 356.629 73.0392 356.28C71.9641 355.93 70.7951 355.988 69.6633 355.878C64.8768 355.416 61.0155 351.995 60.245 347.534C60.2049 347.302 54.6487 347.439 54.0639 347.74C53.3794 348.093 52.9651 348.973 52.5795 349.568C51.9564 350.529 51.3788 351.515 50.8466 352.525Z" fill="black"/>
<path d="M59.8466 352.525C59.4903 353.18 59.1802 353.857 58.9183 354.551C58.2235 356.467 58.1185 358.521 58.0197 360.542C57.9722 360.933 58.0108 361.328 58.1329 361.703C58.4299 362.43 59.286 362.798 60.0862 363C63.4378 363.847 66.9716 363.05 70.4284 362.76C73.8213 362.475 77.2776 362.681 80.6008 361.978C81.092 361.891 81.5667 361.736 82.0095 361.518C82.852 361.004 83.4804 360.233 83.7895 359.335C83.8906 359.105 83.9586 358.864 83.9916 358.617C84.1014 357.553 83.1143 356.629 82.0392 356.28C80.9641 355.93 79.7951 355.988 78.6633 355.878C73.8768 355.416 70.0155 351.995 69.245 347.534C69.2049 347.302 63.6487 347.439 63.0639 347.74C62.3794 348.093 61.9651 348.973 61.5795 349.568C60.9564 350.529 60.3788 351.515 59.8466 352.525Z" fill="#3F3D56"/>
<path d="M82.9989 301.365C83.0691 311.737 79.8876 321.875 76.156 331.625C74.6786 335.485 73.1109 339.311 71.4529 343.103C70.4713 345.351 69.3653 347.844 70.4172 350.063C67.3902 348.971 64.2909 348.325 61.0953 348.83C62.3117 346.479 62.1973 343.743 62.2515 341.126C62.3571 337.572 62.7605 334.033 63.4579 330.54C64.5283 325.226 66.3648 320.076 68.9157 315.237C69.4328 314.216 69.7893 313.129 69.9735 312.011C70.3047 309.523 70.1523 306.999 69.5239 304.564C68.3579 299.168 66.1444 294.026 62.9962 289.397C62.9862 289.5 62.9761 289.605 62.9641 289.708C62.7737 291.25 62.4997 292.782 62.1431 294.298C61.4285 297.511 60.5955 300.725 60.7199 303.955C60.8539 307.38 60.63 310.81 60.0515 314.194C59.8678 315.523 59.5028 316.825 58.9656 318.065C58.6163 318.807 58.1607 319.506 57.8856 320.274C57.6128 321.163 57.4703 322.084 57.4621 323.009C57.0546 330.82 57.4561 340.815 59.1402 348.471C56.3022 348.347 53.482 348.956 50.9806 350.233C48.9452 344.788 47.6485 337.055 46.6789 331.32C45.581 324.546 45.8042 317.639 47.3373 310.941C47.8142 308.707 47.9929 306.424 47.8693 304.147C47.6525 299.612 46.4762 295.175 45.308 290.773C44.7138 288.539 44.1197 286.304 43.5255 284.068C42.6804 280.884 41.834 277.7 40.9863 274.514C40.4242 272.396 39.8562 270.232 40.0328 268.053C40.1569 266.859 40.4215 265.681 40.8217 264.542C42.0862 260.666 43.9767 256.999 46.426 253.673C56.1794 254.192 66.0513 253.326 75.7906 252.617C76.2642 252.528 76.7557 252.607 77.1717 252.839C77.5023 253.159 77.6992 253.582 77.7257 254.029C78.9461 260.581 80.1659 267.134 81.385 273.687C81.9787 276.423 82.3272 279.202 82.4268 281.994C82.4448 284.776 81.9691 287.549 82.0795 290.33C82.228 294.075 82.9748 297.617 82.9989 301.365Z" fill="#2F2E41"/>
<path opacity="0.1" d="M63 290.31C62.806 291.83 62.5268 293.341 62.1634 294.835C60.0015 291.405 57.6719 288.062 55.6818 284.546C55.1684 283.64 54.6796 282.723 54.1887 281.807C53.6999 280.892 53.211 279.976 52.7222 279.061C52.4481 278.547 52.172 278.031 51.9245 277.503C51.5202 276.744 51.2101 275.945 51 275.123C51.724 275.001 53.5076 276.791 54.0434 277.258C55.1427 278.252 56.1806 279.302 57.1523 280.402C58.3281 281.623 59.4074 282.918 60.3819 284.28C61.6274 286.136 62.5132 288.176 63 290.31Z" fill="black"/>
<path d="M72 194.943C72 194.943 66.4486 203.358 67.4766 205.119C68.5047 206.88 50 203.554 50 203.554C50 203.554 60.0748 195.139 59.0467 191.617C58.0187 188.095 72 194.943 72 194.943Z" fill="#EFB7B9"/>
<path d="M66.5 197.182C73.4036 197.182 79 191.927 79 185.445C79 178.963 73.4036 173.708 66.5 173.708C59.5964 173.708 54 178.963 54 185.445C54 191.927 59.5964 197.182 66.5 197.182Z" fill="#EFB7B9"/>
<path d="M71.8634 203.017C70.5287 201.284 68.7168 199.92 66.6195 199.069C65.4121 198.666 64.1639 198.379 62.8941 198.212L57.9192 197.396C56.7 197.196 55.395 197.005 54.2639 197.474C53.6858 197.746 53.1594 198.105 52.7059 198.536C50.9767 200.03 49.301 201.673 47.1331 202.536C46.5396 202.772 45.9189 202.944 45.3263 203.183C42.9007 204.157 41.0871 206.191 40.0567 208.46C38.9757 210.84 38.9444 213.419 39.0297 216.003C39.027 216.894 39.121 217.784 39.3102 218.657C39.5612 219.489 39.8765 220.303 40.2538 221.092C40.9408 222.777 41.5162 224.5 41.9767 226.251C43.2655 230.854 44.337 235.503 45.1911 240.199C45.2656 240.874 45.4784 241.53 45.818 242.13C46.298 242.727 46.8789 243.248 47.5379 243.671C48.0597 244.074 48.542 244.52 48.9792 245.003C49.1924 245.209 49.3488 245.461 49.4346 245.736C49.596 246.43 48.9383 247.025 48.4045 247.532C47.2956 248.587 46.494 249.889 46.0758 251.315C45.8153 251.607 45.6831 251.981 45.7059 252.36C45.8127 252.623 45.8524 252.906 45.8221 253.185C45.7197 253.441 45.5598 253.673 45.3532 253.865C44.8721 254.45 44.6836 255.199 44.8358 255.922C48.7009 257.489 52.8373 258.392 57.0462 258.589C58.0769 258.633 59.1116 258.634 60.1356 258.751C60.866 258.835 61.5875 258.979 62.3184 259.058C63.3817 259.151 64.4505 259.177 65.5175 259.135C71.0675 259.032 76.7804 258.898 81.8769 256.845C82.357 254.406 81.3227 251.922 80.6739 249.517C79.6421 245.694 79.3821 241.728 78.6144 237.85C78.089 235.196 77.3258 232.585 76.8882 229.917C76.4506 227.249 76.348 224.483 77.1341 221.886C77.8308 219.585 78.041 217.241 78.7631 214.947C79.4852 212.652 79.9912 210.164 79.176 207.897C78.1653 205.085 75.0376 202.861 71.8634 203.017Z" fill="#111B47"/>
<path d="M77.8375 179.808C78.4466 177.757 77.2487 175.623 75.8156 173.957C74.2757 172.167 72.286 170.552 69.8565 170.102C67.8821 169.737 65.8362 170.178 63.8287 170.031C62.0493 169.901 60.3443 169.312 58.5741 169.101C56.9728 168.943 55.355 168.999 53.7713 169.269C52.2659 169.472 50.7946 169.851 49.3932 170.397C44.0609 172.575 40.9365 177.955 40.2115 183.291C39.4865 188.627 40.7578 194.003 42.0215 199.252L43.1638 203.998C44.3527 208.937 45.5457 213.902 45.8638 218.953C46.1819 224.004 45.5884 229.189 43.3349 233.802C50.6209 230.194 56.2662 224.301 59.2499 217.189C60.0602 215.235 60.6601 213.209 61.5576 211.288C62.3299 209.636 63.3185 208.071 64.0029 206.386C64.7749 204.482 65.1455 202.46 65.095 200.429C65.056 198.902 64.7789 197.382 64.8272 195.855C64.8755 194.329 65.2967 192.736 66.4413 191.632C67.4588 190.65 68.9045 190.179 70.2156 189.561C72.2775 188.585 74.0788 187.199 75.4896 185.503C76.3151 184.511 76.3591 184.088 76.5691 182.944C76.7733 181.831 77.5168 180.888 77.8375 179.808Z" fill="#2F2E41"/>
<path d="M77.8934 266.587C78.0205 267.799 77.7861 269.042 78.0684 270.232C78.2805 271.125 78.7734 271.938 79.0632 272.812C79.351 273.825 79.499 274.869 79.5037 275.918C79.5456 276.797 79.4737 277.867 78.6458 278.279C78.2822 278.46 77.8461 278.464 77.4676 278.615C77.0892 278.767 76.7645 279.198 76.9812 279.527C77.1634 279.803 77.577 279.807 77.916 279.872C78.255 279.937 78.628 280.267 78.4313 280.535C78.3522 280.622 78.247 280.685 78.1293 280.716C77.7827 280.814 77.4545 280.962 77.1568 281.155C76.8558 281.357 76.701 281.7 76.7565 282.043C76.7978 282.208 76.9172 282.345 77.0803 282.416C77.2434 282.486 77.432 282.482 77.5917 282.405C77.4398 282.71 77.3568 283.041 77.348 283.377C78.6727 283.913 80.1638 283.213 81.4105 282.532C81.9512 282.251 82.4731 281.938 82.9735 281.597C85.0118 280.118 86.1396 277.788 85.9861 275.373C85.9284 274.774 85.8306 274.179 85.6936 273.592C85.5003 272.571 85.2451 271.561 84.9294 270.567C84.573 269.519 84.0831 268.515 83.663 267.488C82.7678 265.299 82.1915 263.007 81.3854 260.788C81.3621 260.574 81.2447 260.378 81.0615 260.249C80.8783 260.119 80.6459 260.067 80.4202 260.105C79.5118 260.061 78.6014 260.139 77.717 260.339C77.1825 260.485 76.3058 260.808 76.0662 261.334C75.8503 261.808 76.2121 262.232 76.4417 262.638C77.1933 263.854 77.6864 265.195 77.8934 266.587Z" fill="#EFB7B9"/>
<path opacity="0.1" d="M77.3143 208.45C77.5724 208.703 77.7886 208.992 77.9552 209.308C79.6742 212.314 79.696 215.912 79.7768 219.343C79.8678 223.204 80.0874 227.061 80.307 230.917L80.9638 242.451C81.0265 243.553 81.0894 244.656 81.25 245.749C82.0226 245.936 82.0546 246.897 81.965 247.658C81.412 252.365 80.0359 257.21 81.477 261.739C81.5321 261.973 81.6481 262.188 81.814 262.367C81.0876 262.146 80.3099 262.136 79.5776 262.338C78.8592 262.483 78.1685 262.736 77.4527 262.893C76.5418 263.092 75.5092 263.178 74.8878 263.849C74.1856 261.814 73.6264 259.736 73.214 257.628C72.8729 255.713 72.78 253.722 71.969 251.942C71.6415 251.224 71.204 250.557 70.8048 249.873C68.7044 246.274 67.676 242.202 66.6709 238.189C66.2197 236.286 66.1115 234.322 66.3511 232.384C66.4939 231.5 66.5777 230.608 66.6021 229.713C66.5381 228.769 66.4095 227.83 66.2173 226.903C65.793 224.182 65.9917 221.405 66.7996 218.766C67.5523 216.315 68.2122 213.736 69.7862 211.678C71.3603 209.619 74.6584 208.485 77.3143 208.45Z" fill="black"/>
<path d="M77.3143 207.511C77.5724 207.764 77.7886 208.053 77.9552 208.369C79.6742 211.375 79.696 214.973 79.7768 218.404C79.8678 222.265 80.0874 226.122 80.307 229.978L80.9638 241.512C81.0265 242.614 81.0894 243.717 81.25 244.81C82.0226 244.997 82.0546 245.958 81.965 246.72C81.412 251.426 80.0359 256.271 81.477 260.8C81.5321 261.034 81.6481 261.25 81.814 261.428C81.0876 261.207 80.3099 261.197 79.5776 261.399C78.8592 261.544 78.1685 261.797 77.4527 261.954C76.5418 262.153 75.5092 262.239 74.8878 262.91C74.1856 260.875 73.6264 258.797 73.2141 256.689C72.8729 254.774 72.78 252.783 71.969 251.003C71.6415 250.285 71.204 249.618 70.8048 248.934C68.7044 245.335 67.676 241.263 66.6709 237.25C66.2197 235.347 66.1115 233.383 66.3511 231.445C66.4939 230.561 66.5777 229.669 66.6021 228.774C66.5381 227.83 66.4095 226.891 66.2173 225.964C65.793 223.243 65.9917 220.466 66.7996 217.827C67.5523 215.376 68.2122 212.797 69.7862 210.739C71.3603 208.68 74.6584 207.546 77.3143 207.511Z" fill="#111B47"/>
<g opacity="0.1">
<path d="M75.6973 173.314C74.1622 171.511 72.1788 169.884 69.7568 169.432C67.7886 169.064 65.7492 169.508 63.748 169.36C61.9742 169.229 60.2745 168.636 58.5099 168.424C56.9136 168.264 55.3009 168.321 53.7222 168.593C52.2214 168.797 50.7547 169.179 49.3577 169.729C48.6029 170.042 47.8824 170.422 47.2065 170.865C48.4519 170.426 49.744 170.112 51.0609 169.928C52.6396 169.656 54.2523 169.599 55.8486 169.759C57.6133 169.971 59.3129 170.564 61.0867 170.695C63.0879 170.843 65.1274 170.399 67.0956 170.766C69.5175 171.219 71.5009 172.846 73.036 174.649C74.4647 176.327 75.6589 178.477 75.0516 180.542C74.7319 181.63 73.9908 182.58 73.7872 183.701C73.5779 184.853 73.534 185.279 72.7111 186.278C71.6519 187.563 70.3706 188.674 68.9198 189.567C69.3202 189.39 69.7235 189.217 70.1149 189.03C72.1703 188.047 73.9659 186.651 75.3723 184.943C76.1953 183.945 76.2391 183.518 76.4484 182.366C76.652 181.245 77.3931 180.295 77.7128 179.208C78.3201 177.142 77.1259 174.992 75.6973 173.314Z" fill="black"/>
<path d="M66.3524 191.116C66.567 190.91 66.8006 190.721 67.0506 190.552C65.8573 191.09 64.6021 191.564 63.6912 192.451C62.5501 193.563 62.1303 195.168 62.0821 196.706C62.0339 198.243 62.3102 199.774 62.349 201.312C62.3994 203.358 62.0299 205.395 61.2604 207.312C60.5781 209.009 59.5926 210.585 58.8228 212.249C57.9281 214.184 57.3301 216.225 56.5223 218.192C53.9422 224.401 49.3603 229.713 43.4069 233.397C43.3766 233.461 43.3493 233.526 43.3184 233.59C50.5816 229.956 56.2092 224.021 59.1835 216.857C59.9913 214.89 60.5893 212.849 61.484 210.914C62.2538 209.25 63.2394 207.674 63.9217 205.977C64.6912 204.06 65.0606 202.023 65.0103 199.977C64.9714 198.439 64.6952 196.908 64.7433 195.371C64.7915 193.833 65.2113 192.228 66.3524 191.116Z" fill="black"/>
</g>
<path d="M338.525 361.334C337.925 361.974 336.897 362.103 335.967 362.187C334.765 362.341 333.546 362.362 332.339 362.248C330.905 362.06 330.045 362.78 328.735 362.226C327.942 361.891 326.722 362.561 325.929 362.226C324.843 361.767 321.091 361.672 320.429 360.775C319.768 359.878 319.835 358.461 320.881 357.932C321.178 357.807 321.484 357.701 321.797 357.615C323.548 356.999 327.096 352.354 328.959 352.117C329.883 352.079 330.801 352.27 331.609 352.668C333.446 353.389 336.689 353.958 337.491 355.787C338.115 357.211 339.824 359.941 338.525 361.334Z" fill="#2F2E41"/>
<path d="M351.47 361.876C352.063 362.554 353.079 362.691 353.999 362.78C355.186 362.943 356.391 362.965 357.584 362.845C359.002 362.645 360.73 363.797 362.025 363.211C362.809 362.856 364.015 363.041 364.798 362.686C365.872 362.199 370.922 363.284 371.576 362.334C372.229 361.385 372.163 359.885 371.129 359.324C370.836 359.192 370.533 359.08 370.223 358.989C368.492 358.337 362.768 352.369 360.926 352.117C360.012 352.077 359.105 352.279 358.306 352.701C356.491 353.464 353.284 354.067 352.492 356.003C351.875 357.511 350.186 360.402 351.47 361.876Z" fill="#2F2E41"/>
<path d="M357.088 256.19C357.653 257.201 358.147 258.246 358.566 259.318C363.581 271.676 364.001 285.18 364.209 298.39C364.191 300.538 364.323 302.684 364.603 304.816C364.813 306.168 365.145 307.535 364.931 308.886C364.746 310.055 364.155 311.207 364.391 312.368C364.496 312.888 364.764 313.371 364.87 313.892C364.951 314.462 364.934 315.042 364.82 315.608L364.147 320.267C363.764 322.922 362.88 325.479 362.928 328.157C362.961 329.983 362.994 331.813 363.213 333.629C363.434 335.472 363.847 337.302 363.868 339.157C363.884 340.546 363.68 341.928 363.548 343.311C363.362 345.265 363.32 347.229 363.422 349.189C363.5 350.698 363.686 352.266 364.546 353.548C363.583 354.835 362.629 355.987 361.087 356.617C357.953 357.897 354.358 357.463 350.972 357.005C351.159 356.423 351.45 355.763 351.179 355.21C351.02 354.943 350.824 354.695 350.598 354.473C349.859 353.494 349.345 352.383 349.091 351.21C348.681 349.819 348.271 348.321 349.112 346.986C349.402 346.51 349.53 345.964 349.479 345.419C348.778 336.659 346.686 327.595 348.613 318.998C348.819 318.08 349.064 317.168 349.179 316.236C349.282 314.897 349.299 313.552 349.23 312.211L349.19 310.343C349.089 308.351 349.176 306.308 348.747 304.337C348.44 302.925 347.866 301.507 348.573 300.068C348.886 299.4 348.847 298.634 348.468 297.996C346.981 295.569 345.785 292.996 344.901 290.326C344.717 289.579 344.466 288.849 344.15 288.142C343.718 287.397 343.222 286.687 342.667 286.017C340.989 283.751 339.985 281.121 339 278.525C339.105 278.287 339.025 277.956 338.751 277.99C338.48 278.054 338.247 278.216 338.104 278.44C336.755 280.129 336.642 282.383 336.581 284.488C336.478 286.444 336.514 288.404 336.688 290.356C336.804 291.378 336.995 292.392 337.094 293.416C337.223 295.327 337.19 297.244 336.996 299.149L336.307 308.527C336.214 309.302 336.264 310.087 336.455 310.846C336.898 312.161 337.113 313.532 337.094 314.909C336.913 320.574 337.438 326.239 338.661 331.79C338.997 333.323 339.386 334.846 339.672 336.388C340.345 340.021 340.437 343.723 340.528 347.409C340.583 349.676 340.623 352.023 339.664 354.107C339.29 354.75 339.015 355.438 338.848 356.152C338.844 356.521 338.792 356.887 338.691 357.243C338.41 357.918 337.566 358.205 336.806 358.359C335.38 358.648 333.917 358.745 332.461 358.647C332.119 358.642 331.782 358.572 331.47 358.442C330.927 358.18 330.639 357.625 330.226 357.205C329.335 356.299 327.854 356.021 327.043 355.052C326.028 353.841 326.454 352.086 327.058 350.657C327.662 349.227 328.41 347.675 327.89 346.217C327.277 344.498 325.105 343.573 324.522 341.846C326.186 334.88 322.099 327.675 322.449 320.546C322.531 318.885 322.84 317.237 322.846 315.574C322.862 311.293 320.871 307.126 321.198 302.855C322.031 292.001 318.062 281.166 316.38 270.398C316.062 268.791 315.943 267.155 316.026 265.522C316.275 262.827 317.619 260.318 319.234 258.07C320.392 256.459 321.784 254.883 323.702 254.129C325.281 253.509 327.05 253.511 328.764 253.523C333.04 253.554 337.316 253.585 341.591 253.657C344.501 253.619 347.407 253.861 350.263 254.38C352.576 254.872 354.739 255.877 357.088 256.19Z" fill="#2F2E41"/>
<path d="M288.641 206.689C288.212 204.745 289.023 202.665 288.389 200.77C288.16 200.087 287.598 199.376 286.825 199.396C286.075 199.415 285.567 200.096 284.901 200.418C283.828 200.937 282.525 200.466 281.453 199.945C280.381 199.424 279.186 198.835 278.023 199.147C277.886 199.822 278.378 200.465 278.913 200.939C279.506 201.354 279.996 201.88 280.352 202.484C280.527 203.136 280.593 203.809 280.549 204.48C280.671 206.02 281.724 207.346 282.777 208.544C284.473 210.474 286.274 212.323 288.173 214.083C288.17 214.081 291.055 210.776 290.999 210.199C290.947 209.655 289.976 209.146 289.624 208.707C289.141 208.109 288.806 207.42 288.641 206.689Z" fill="#A1616A"/>
<path d="M370.591 246.361C370.833 246.97 371.015 247.6 371.133 248.243C371.834 251.537 372.276 254.876 372.712 258.212C372.828 259.102 372.944 259.994 372.98 260.89C373.103 263.02 372.651 265.143 371.669 267.051C370.669 268.964 368.971 270.448 366.903 271.213C366.267 271.432 365.377 271.472 365.099 270.875C365 270.599 365.002 270.298 365.105 270.023C365.356 269.135 365.868 268.338 366.2 267.475C366.692 266.185 366.774 264.782 366.435 263.447C366.305 262.936 366.029 262.367 365.496 262.265C365.762 263.442 365.538 264.674 364.873 265.692C364.722 265.976 364.461 266.19 364.147 266.289C363.694 266.333 363.269 266.067 363.124 265.649C362.994 265.238 362.966 264.804 363.041 264.38C363.212 262.241 363.548 260.116 364.047 258.025C364.641 255.729 365.582 253.465 365.521 251.099C365.467 248.955 364.585 246.851 364.832 244.72C364.836 244.588 364.879 244.46 364.958 244.353C365.035 244.278 365.13 244.221 365.234 244.188C365.851 243.941 366.487 243.737 367.135 243.578C367.518 243.485 368.825 243.045 369.192 243.242C369.489 243.401 369.581 244.356 369.729 244.679C369.992 245.251 370.342 245.782 370.591 246.361Z" fill="#A1616A"/>
<path d="M326 183.098C330.971 183.098 335 179.314 335 174.647C335 169.98 330.971 166.196 326 166.196C321.029 166.196 317 169.98 317 174.647C317 179.314 321.029 183.098 326 183.098Z" fill="#A1616A"/>
<path d="M334.684 180.854C334.683 181.41 334.73 181.965 334.824 182.514C334.952 183.07 335.132 183.613 335.364 184.137C335.673 184.991 336.109 185.798 336.659 186.535C337.218 187.277 338.055 187.791 339 187.974C332.678 190.769 325.928 192.61 319 193.427C320.092 192.742 321 191.827 321.653 190.755C322 190.066 322.236 189.333 322.356 188.579C322.946 185.424 322.646 182.179 321.487 179.168C321.372 178.871 321.259 178.507 321.477 178.266C321.569 178.178 321.682 178.109 321.805 178.065C324.552 176.968 327.519 176.446 330.501 176.535C331.263 176.54 332.025 176.572 332.785 176.624C333.193 176.652 334.096 176.57 334.421 176.853C334.809 177.19 334.615 178.236 334.627 178.693L334.684 180.854Z" fill="#A1616A"/>
<path d="M338.95 187.589C336.148 184.245 331.259 183.11 327.1 184.839C322.694 186.798 320.524 191.501 316.649 194.267C315.768 194.882 314.828 195.42 313.843 195.877C313.261 196.176 312.641 196.405 311.997 196.558C311.272 196.706 310.516 196.686 309.795 196.847C308.421 197.223 307.25 198.069 306.518 199.215C306.156 199.815 305.753 200.393 305.314 200.946C304.909 201.393 304.406 201.755 303.978 202.184C302.437 203.726 302.019 205.94 301.667 208.021C300.462 209.203 299.146 210.283 297.736 211.25C297.292 211.567 296.8 211.821 296.275 212.002C294.92 212.411 293.425 211.891 292.269 211.113C291.114 210.336 290.173 209.312 289.033 208.514C287.987 209.907 286.893 211.305 285.777 212.652C285.609 212.908 285.352 213.104 285.049 213.208C284.84 213.864 285.342 214.544 285.718 215.132L287.737 218.291C288.404 219.441 289.222 220.509 290.173 221.47C291.138 222.437 292.455 223.033 293.867 223.143C294.758 223.136 295.641 222.978 296.472 222.679C300.319 221.474 303.85 219.551 307.509 217.917C308.172 217.564 308.914 217.362 309.677 217.325C310.46 217.306 311.161 217.776 311.39 218.473C311.809 220.447 312.226 222.413 312.803 224.351C313.347 226.179 313.853 228.017 314.319 229.864C314.631 230.994 314.854 232.144 314.986 233.305C315.046 233.964 315.053 234.626 315.059 235.287L315.137 243.279C315.145 244.139 314.619 244.676 314.213 245.449C313.592 246.649 313.498 248.027 313.952 249.29C314.18 249.913 314.536 250.489 314.788 251.104C315.398 252.591 315.375 254.229 315.343 255.821L315.27 259.467C315.252 259.618 315.281 259.771 315.355 259.907C315.594 260.254 316.17 260.051 316.534 259.816L318.365 258.634C320.815 258.948 323.29 259.06 325.761 258.967C332.789 258.872 339.818 259.132 346.829 259.589C349.169 259.742 351.587 259.907 353.798 259.18C354.92 258.811 355.954 258.222 357.101 257.926C357.574 257.858 358.023 257.685 358.411 257.424C359.053 256.871 358.883 255.901 358.621 255.124C358.392 254.444 358.132 253.775 357.841 253.115C357.541 252.509 357.297 251.88 357.111 251.235C356.76 249.78 357.101 248.1 356.129 246.915C353.952 244.264 355.493 240.184 354.579 236.957C354.284 235.913 353.847 234.906 353.57 233.858C353.396 233.199 353.286 232.528 353.176 231.858C352.89 230.408 352.748 228.937 352.752 227.463C352.778 226.726 352.878 225.992 352.978 225.26L353.669 220.176C354.534 221.68 355.135 223.302 355.449 224.982C356.078 227.491 356.853 229.967 357.77 232.398C358.292 233.865 358.813 235.331 359.376 236.784C359.733 237.611 360.008 238.466 360.197 239.34C360.321 240.044 360.325 240.762 360.412 241.472C360.602 242.993 361.173 244.451 362.081 245.728C362.248 246.024 362.526 246.253 362.862 246.373C363.088 246.412 363.321 246.404 363.544 246.347C365.988 245.898 368.353 245.136 370.572 244.083C371.045 243.901 371.456 243.603 371.759 243.22C372.357 242.315 371.689 241.185 371.398 240.158C371.087 239.057 371.16 237.733 370.229 236.995C366.987 234.426 368.596 229.211 366.974 225.546C366.689 224.903 366.357 224.277 366.112 223.62C365.924 223.117 365.788 222.6 365.651 222.083C364.518 217.815 363.306 213.566 362.014 209.336C360.675 204.95 360.818 200.382 359.132 196.101C358.815 195.204 358.401 194.339 357.897 193.519C357.326 192.663 356.563 191.932 355.661 191.376C353.214 189.869 350.744 188.585 347.87 188.039C344.995 187.492 341.883 187.577 338.95 187.589Z" fill="#D0CDE1"/>
<path d="M317.599 176.646C316.349 176.018 316.679 174.312 316.466 173.002C316.029 170.307 312.766 168.708 312 166.077C312.88 166.178 313.773 166.06 314.589 165.735C314.746 164.862 314.561 163.965 314.067 163.209C316.751 162.191 318.923 160.194 321.648 159.277C325.075 158.124 328.891 158.831 332.348 159.904C334.073 160.439 335.868 161.133 336.911 162.523C338.056 164.049 338.039 166.058 337.977 167.92C337.881 170.841 337.757 173.867 336.364 176.484C334.59 179.816 329.567 182.903 325.417 182C323.691 181.625 323.183 180.613 322.456 179.213C322.003 178.342 321.833 177.331 320.814 176.877C319.817 176.434 318.61 177.155 317.599 176.646Z" fill="#2F2E41"/>
<g opacity="0.1">
<path d="M355.613 238.768C355.624 238.998 355.631 239.23 355.633 239.463C355.622 239.233 355.615 239.001 355.613 238.768Z" fill="black"/>
<path d="M315.527 247.483C316.136 248.979 316.113 250.627 316.081 252.229C316.073 252.647 316.064 253.065 316.056 253.483C316.017 252.62 315.839 251.766 315.527 250.953C315.274 250.334 314.918 249.754 314.691 249.127C314.3 248.031 314.314 246.843 314.731 245.755C314.959 246.344 315.288 246.897 315.527 247.483Z" fill="black"/>
</g>
<g opacity="0.1">
<path d="M314.483 164.289L314.474 164.292C314.398 163.75 314.242 163.231 314.013 162.761C314.155 162.689 314.295 162.612 314.434 162.532C314.544 163.108 314.56 163.705 314.483 164.289Z" fill="black"/>
</g>
<path d="M24 147.417L21.8249 145.554C14.1007 138.821 9.00126 134.451 9.00126 129.007C8.9626 126.914 9.81766 124.896 11.3717 123.411C12.9257 121.927 15.0463 121.103 17.2505 121.127C19.8566 121.14 22.3247 122.24 24 124.136C25.6752 122.24 28.1434 121.14 30.7494 121.127C32.9537 121.103 35.0743 121.927 36.6283 123.411C38.1823 124.896 39.0374 126.914 38.9987 129.007C38.9987 134.451 33.8992 138.821 26.1751 145.554L24 147.417Z" fill="#FF6584"/>
<path fill-rule="evenodd" clip-rule="evenodd" d="M28 142.723L25.8249 140.86C18.1007 134.126 13.0013 129.756 13.0013 124.312C12.9626 122.219 13.8177 120.201 15.3717 118.717C16.9257 117.232 19.0463 116.408 21.2505 116.432C23.8566 116.445 26.3247 117.546 28 119.441C29.6752 117.546 32.1434 116.445 34.7494 116.432C36.9537 116.408 39.0743 117.232 40.6283 118.717C42.1823 120.201 43.0374 122.219 42.9987 124.312C42.9987 129.756 37.8992 134.126 30.1751 140.86L28 142.723Z" stroke="#3F3D56" stroke-width="2"/>
</svg>
